<?xml version="1.0" standalone="no"?>
<!DOCTYPE svg PUBLIC "-//W3C//DTD SVG 20010904//EN"
 "http://www.w3.org/TR/2001/REC-SVG-20010904/DTD/svg10.dtd">
<svg version="1.0" xmlns="http://www.w3.org/2000/svg"
 width="200.000000pt" height="200.000000pt" viewBox="0 0 200.000000 200.000000"
 preserveAspectRatio="xMidYMid meet">

<g transform="translate(0.000000,200.000000) scale(0.100000,-0.100000)"
fill="#000000" stroke="none">
<path d="M2 1348 c3 -573 5 -653 18 -653 9 0 14 8 13 20 -1 11 0 15 3 8 3 -7
13 -9 22 -6 16 6 15 5 -1 -14 -9 -11 -14 -23 -10 -27 5 -4 -1 -14 -11 -22 -17
-12 -18 -14 -3 -14 9 0 17 5 17 11 0 6 9 8 20 4 12 -4 28 -1 37 7 14 11 16 11
11 -2 -4 -11 1 -16 14 -17 17 -2 16 2 -9 25 -18 17 -22 23 -10 19 10 -4 23 -7
28 -7 6 0 7 -4 4 -10 -4 -6 1 -7 11 -3 14 5 15 8 3 17 -8 6 -20 23 -27 36 -13
24 -13 24 13 -3 25 -26 41 -77 25 -77 -4 0 -11 -8 -14 -17 -6 -16 -6 -16 12 0
10 9 23 17 29 17 6 0 13 7 17 15 3 8 10 15 17 15 6 0 9 -7 6 -15 -4 -8 -1 -17
5 -21 6 -4 8 -3 5 2 -3 6 -2 16 4 24 5 8 9 10 9 5 0 -6 9 -11 20 -12 24 -2 26
19 5 37 -9 7 -13 15 -11 17 9 9 48 -35 41 -46 -3 -6 2 -12 12 -12 10 -1 28 -3
41 -4 17 -2 20 1 13 8 -13 13 -15 54 -3 60 4 3 14 -2 22 -11 13 -14 12 -15 -3
-9 -9 3 -17 2 -17 -3 0 -6 5 -10 10 -10 6 0 10 -7 10 -16 0 -10 6 -14 14 -11
7 3 19 0 25 -6 10 -9 12 -9 9 2 -2 7 7 15 21 17 20 4 23 1 18 -18 -6 -22 -5
-22 8 -4 16 22 20 40 6 32 -4 -3 -16 3 -25 13 -13 15 -14 18 -1 18 8 0 12 -4
9 -9 -3 -4 2 -8 10 -8 9 0 16 7 16 15 0 8 -9 15 -19 15 -15 0 -19 5 -16 21 6
30 15 37 15 12 0 -20 25 -39 33 -25 2 4 2 2 1 -5 -2 -7 1 -15 6 -18 6 -4 7
-13 1 -24 -6 -10 -6 -23 0 -32 7 -11 9 -9 9 9 0 15 6 22 19 22 11 0 23 -5 26
-10 4 -7 12 -7 25 0 27 15 33 12 27 -10 -6 -24 -1 -25 19 -6 12 13 11 17 -8
30 -17 12 -24 13 -31 3 -6 -9 -7 -8 -4 3 5 19 47 41 61 32 6 -4 1 -8 -11 -10
-21 -3 -22 -4 -5 -21 9 -10 37 -21 62 -24 32 -4 40 -3 28 4 -10 6 -18 18 -18
27 0 10 -3 13 -8 7 -4 -5 -15 -11 -24 -11 -14 -1 -16 2 -7 17 8 15 14 17 29 9
23 -12 33 -13 26 -1 -4 5 3 7 14 4 11 -3 20 -12 20 -20 0 -8 -5 -11 -11 -7 -7
4 -10 1 -7 -6 2 -7 11 -14 20 -16 11 -1 14 4 12 20 -3 12 -2 15 2 6 4 -8 11
-23 16 -32 6 -13 5 -16 -6 -12 -22 9 -88 -16 -115 -42 -13 -13 -30 -24 -37
-24 -39 0 -156 -55 -202 -96 -47 -41 -53 -52 -81 -142 -16 -53 -36 -126 -45
-162 -8 -36 -18 -76 -22 -90 -5 -19 -4 -22 5 -14 6 6 25 64 41 130 45 184 67
232 126 277 31 23 79 47 130 62 50 16 90 35 104 50 13 14 30 23 37 21 7 -3 15
-1 18 4 11 18 25 10 25 -13 0 -12 7 -33 16 -45 15 -22 83 -62 105 -62 7 0 -12
12 -42 28 -59 30 -88 75 -59 93 8 4 21 12 27 17 7 4 16 36 19 70 4 34 11 62
15 62 5 0 9 11 9 25 0 17 -21 46 -74 97 -83 82 -85 86 -116 271 -24 136 -18
196 27 294 17 37 51 48 101 34 28 -8 39 -7 60 9 33 22 72 35 72 22 0 -5 18
-14 41 -21 47 -14 134 -68 166 -102 12 -13 24 -42 28 -64 3 -22 9 -53 12 -68
l5 -29 19 21 c28 30 56 26 79 -11 29 -48 25 -85 -16 -145 -37 -54 -73 -70 -75
-35 -1 9 -5 -5 -9 -31 -9 -53 -40 -94 -128 -169 -66 -57 -107 -73 -146 -58
-37 14 -41 13 -25 -6 23 -28 69 -46 99 -39 30 7 120 96 120 119 0 7 16 27 35
46 l35 34 0 -71 c0 -39 3 -78 6 -87 5 -12 -10 -23 -57 -46 -35 -16 -58 -30
-51 -30 16 0 92 38 114 57 23 20 34 11 47 -42 6 -25 16 -45 21 -45 6 0 10 5
10 11 0 5 5 7 10 4 28 -17 -74 -121 -165 -168 -22 -11 -67 -26 -100 -33 -41
-8 -50 -12 -29 -13 17 -1 52 5 77 13 85 25 246 158 233 192 -3 7 -1 16 5 20
17 10 22 -3 10 -24 -9 -17 -8 -22 9 -27 31 -10 24 -37 -22 -82 -56 -53 -127
-93 -166 -93 -18 0 -35 -7 -40 -16 -20 -37 -189 -46 -259 -14 -63 28 -93 62
-93 105 0 19 -4 35 -10 35 -12 0 -12 -54 0 -90 4 -14 8 -21 9 -16 1 5 9 2 19
-7 41 -38 115 -60 192 -59 132 2 255 53 364 152 l56 52 50 -21 c27 -12 70 -21
97 -21 26 0 64 -5 83 -10 36 -10 110 -69 110 -88 0 -5 -28 -13 -62 -16 -84
-10 -113 -40 -163 -171 -21 -55 -51 -127 -67 -160 -17 -33 -34 -71 -39 -85
l-9 -25 21 25 c28 32 74 132 110 239 16 46 36 95 44 107 21 32 62 52 123 60
l52 7 20 -44 c11 -24 20 -57 20 -74 0 -67 -50 -202 -111 -296 -34 -53 -37 -70
-9 -44 25 23 107 188 119 240 7 31 9 4 10 -112 1 -102 5 -153 12 -153 7 0 10
60 7 193 -3 191 -3 192 -34 257 -52 110 -116 159 -218 167 -75 6 -165 37 -184
64 -7 11 -18 17 -23 14 -5 -3 -6 1 -3 9 3 9 10 16 16 16 5 0 6 -4 3 -10 -3 -5
0 -10 8 -10 8 0 17 -10 21 -22 4 -15 9 -19 13 -12 10 15 44 21 61 11 7 -5 11
-5 10 0 -2 4 2 8 7 8 6 0 9 -4 7 -9 -2 -5 7 -3 20 5 13 8 34 13 47 11 19 -3
21 -6 10 -13 -11 -7 -8 -9 9 -9 19 0 22 4 17 20 -8 25 0 25 23 2 12 -12 32
-18 55 -17 21 0 37 -4 37 -10 0 -5 4 -3 9 5 14 22 3 30 -25 20 -19 -8 -23 -7
-17 3 4 6 8 15 8 19 0 3 4 10 9 15 5 5 6 3 2 -5 -4 -7 -1 -12 8 -12 9 0 16 7
16 15 0 14 -12 20 -33 16 -5 -1 -6 3 -3 8 9 14 46 1 46 -16 0 -11 4 -11 20 -3
11 6 17 16 14 22 -4 7 -2 8 5 4 9 -6 7 -17 -9 -42 -23 -40 -26 -58 -5 -30 12
16 15 17 20 4 3 -8 13 -15 22 -15 14 0 14 2 -1 12 -16 12 -12 50 4 40 5 -3 16
5 25 17 12 16 15 18 13 6 -2 -9 0 -16 3 -15 13 4 37 -25 32 -39 -8 -22 7 -17
33 12 29 30 29 30 4 30 -11 0 -20 -4 -20 -9 0 -4 -5 -5 -11 -2 -15 10 -6 16
30 20 22 3 31 0 31 -10 0 -8 3 -15 8 -16 4 0 19 -3 35 -5 19 -3 27 0 27 10 0
8 -6 17 -12 20 -10 5 -10 7 0 12 9 4 12 138 12 620 l0 614 -1000 0 -1000 0 2
-652z m858 526 c0 -9 -5 -14 -12 -12 -18 6 -21 28 -4 28 9 0 16 -7 16 -16z
m364 -380 c7 -18 -10 -44 -28 -44 -23 0 -36 22 -25 42 12 22 45 24 53 2z m556
12 c0 -3 -4 -8 -10 -11 -5 -3 -10 -1 -10 4 0 6 5 11 10 11 6 0 10 -2 10 -4z
m-1606 -227 c-3 -5 -10 -7 -15 -3 -5 3 -7 10 -3 15 3 5 10 7 15 3 5 -3 7 -10
3 -15z m506 -123 c0 -18 6 -54 14 -79 16 -55 4 -53 -24 3 -27 54 -26 131 1
114 5 -3 9 -20 9 -38z m720 -240 c0 -8 -4 -17 -8 -20 -13 -8 -35 11 -28 23 10
16 36 14 36 -3z m160 -156 c0 -5 -2 -10 -4 -10 -3 0 -8 5 -11 10 -3 6 -1 10 4
10 6 0 11 -4 11 -10z m100 0 c0 -5 -4 -10 -10 -10 -5 0 -10 5 -10 10 0 6 5 10
10 10 6 0 10 -4 10 -10z m207 4 c-3 -3 -12 -4 -19 -1 -8 3 -5 6 6 6 11 1 17
-2 13 -5z m-341 -23 c0 -13 -7 -18 -23 -17 l-23 1 23 17 c12 10 22 18 22 18 1
0 1 -8 1 -19z m74 4 c7 -9 8 -15 2 -15 -5 0 -12 7 -16 15 -3 8 -4 15 -2 15 2
0 9 -7 16 -15z m-120 -2 c0 -7 -45 -21 -53 -16 -14 8 2 21 28 21 14 0 25 -2
25 -5z m490 3 c0 -3 -4 -8 -10 -11 -5 -3 -10 -1 -10 4 0 6 5 11 10 11 6 0 10
-2 10 -4z m-1164 -17 c5 -8 9 -8 14 1 4 7 10 8 13 4 3 -5 -1 -15 -9 -22 -8 -7
-14 -8 -14 -2 0 5 -7 10 -15 10 -8 0 -15 5 -15 10 0 13 17 13 26 -1z m854 -11
c0 -10 -7 -18 -15 -18 -8 0 -15 8 -15 18 0 10 7 19 15 19 8 0 15 -9 15 -19z
m-1094 -3 c-1 -8 -5 -17 -8 -21 -5 -4 -4 16 1 34 3 9 9 -1 7 -13z m844 5 c0
-5 -2 -10 -4 -10 -3 0 -8 5 -11 10 -3 6 -1 10 4 10 6 0 11 -4 11 -10z m-1290
-10 c0 -5 -2 -10 -4 -10 -3 0 -8 5 -11 10 -3 6 -1 10 4 10 6 0 11 -4 11 -10z
m234 -6 c3 -8 2 -12 -4 -9 -6 3 -10 10 -10 16 0 14 7 11 14 -7z m99 -5 c3 -12
1 -19 -5 -17 -13 5 -20 38 -8 38 4 0 10 -9 13 -21z m-233 -12 c0 -7 -4 -6 -10
3 -8 12 -10 8 -11 -15 -1 -29 -1 -29 -8 -5 -4 14 -3 28 3 32 13 8 26 1 26 -15z
m51 -4 c11 -15 11 -16 0 -6 -7 6 -20 9 -29 6 -10 -4 -13 -2 -8 5 10 17 21 15
37 -5z m86 -20 c0 -9 -4 -10 -14 -2 -7 6 -13 12 -13 14 0 1 6 2 13 2 8 0 14
-6 14 -14z"/>
<path d="M962 1404 c-30 -21 -19 -35 19 -24 20 6 39 6 50 0 22 -13 29 -13 29
0 0 9 -51 40 -67 40 -5 0 -19 -7 -31 -16z"/>
<path d="M764 1373 c-14 -10 -44 -55 -44 -66 0 -4 15 3 33 17 19 15 44 26 56
26 30 0 22 24 -10 28 -13 1 -29 -1 -35 -5z"/>
<path d="M975 1273 c2 -10 4 -22 4 -27 1 -6 7 -2 14 8 16 22 70 30 99 15 21
-11 22 -11 9 4 -10 12 -30 17 -71 17 -50 0 -58 -2 -55 -17z"/>
<path d="M815 1273 c4 -9 -3 -13 -23 -13 -16 0 -36 -8 -45 -18 -26 -28 -20
-38 7 -13 24 22 76 27 66 6 -3 -5 -13 -9 -23 -7 -14 1 -18 -4 -15 -20 2 -17
10 -22 33 -22 25 0 30 4 33 24 1 14 -7 36 -19 50 -11 14 -18 19 -14 13z"/>
<path d="M1020 1257 c0 -8 9 -25 21 -38 11 -13 18 -18 14 -11 -4 8 1 12 14 12
15 0 21 6 21 21 0 17 -4 20 -22 16 -12 -4 -28 -1 -35 5 -10 8 -13 7 -13 -5z"/>
<path d="M1226 1234 c-12 -27 -14 -40 -6 -49 8 -10 8 -20 0 -37 -12 -22 -12
-22 6 -5 16 14 17 21 6 37 -10 17 -9 26 4 51 8 17 14 33 12 35 -3 2 -12 -12
-22 -32z"/>
<path d="M871 1224 c0 -11 3 -14 6 -6 3 7 2 16 -1 19 -3 4 -6 -2 -5 -13z"/>
<path d="M874 1106 c5 -43 4 -47 -9 -36 -13 11 -14 10 -9 -4 3 -9 13 -16 21
-16 11 0 13 9 7 48 -3 26 -9 49 -12 52 -3 3 -2 -17 2 -44z"/>
<path d="M1000 1048 c-11 -12 -20 -28 -20 -35 0 -7 -21 -19 -47 -27 -27 -8
-40 -15 -31 -15 22 -1 118 35 143 53 16 12 17 16 6 30 -18 21 -26 20 -51 -6z"/>
<path d="M940 950 c-8 -5 -10 -10 -5 -10 6 0 17 5 25 10 8 5 11 10 5 10 -5 0
-17 -5 -25 -10z"/>
<path d="M1148 844 c-9 -32 -15 -60 -13 -62 5 -6 37 98 33 109 -2 7 -11 -15
-20 -47z"/>
<path d="M918 748 c5 -5 16 -8 23 -6 8 3 3 7 -10 11 -17 4 -21 3 -13 -5z"/>
<path d="M993 733 c15 -2 39 -2 55 0 15 2 2 4 -28 4 -30 0 -43 -2 -27 -4z"/>
<path d="M1795 724 c-13 -10 -15 -14 -4 -14 20 0 43 16 32 23 -4 3 -17 -1 -28
-9z"/>
<path d="M1840 714 c0 -8 5 -12 10 -9 6 4 8 11 5 16 -9 14 -15 11 -15 -7z"/>
<path d="M1900 710 c0 -5 -3 -15 -6 -24 -3 -9 -1 -16 6 -16 6 0 8 5 5 10 -3 6
4 14 17 19 13 6 21 10 18 11 -24 7 -40 7 -40 0z"/>
<path d="M1955 700 c4 -6 11 -8 16 -5 14 9 11 15 -7 15 -8 0 -12 -5 -9 -10z"/>
<path d="M0 674 c0 -15 26 -19 34 -5 3 5 -3 11 -14 14 -13 3 -20 0 -20 -9z"/>
<path d="M1935 680 c3 -5 8 -10 11 -10 2 0 4 5 4 10 0 6 -5 10 -11 10 -5 0 -7
-4 -4 -10z"/>
<path d="M1510 675 c0 -2 7 -8 15 -15 12 -10 15 -10 15 2 0 8 -7 15 -15 15 -8
0 -15 -1 -15 -2z"/>
<path d="M565 660 c-3 -5 -5 -10 -3 -11 32 -8 48 -7 48 3 0 6 -3 8 -7 5 -3 -4
-12 -2 -19 4 -8 7 -14 7 -19 -1z"/>
<path d="M80 629 c0 -5 5 -7 10 -4 6 3 10 8 10 11 0 2 -4 4 -10 4 -5 0 -10 -5
-10 -11z"/>
<path d="M471 433 c-36 -133 -66 -393 -44 -380 5 4 13 55 16 114 4 59 17 152
30 206 14 53 21 97 16 97 -5 0 -13 -17 -18 -37z"/>
<path d="M1045 388 c-130 -135 -159 -168 -153 -173 3 -3 58 51 123 120 64 69
113 125 108 125 -5 0 -40 -33 -78 -72z"/>
</g>
</svg>
